<?xml version="1.0" encoding="UTF-8" standalone="no"?>
<svg
   xmlns:dc="http://purl.org/dc/elements/1.1/"
   xmlns:cc="http://creativecommons.org/ns#"
   xmlns:rdf="http://www.w3.org/1999/02/22-rdf-syntax-ns#"
   xmlns:svg="http://www.w3.org/2000/svg"
   xmlns="http://www.w3.org/2000/svg"
   xmlns:sodipodi="http://sodipodi.sourceforge.net/DTD/sodipodi-0.dtd"
   xmlns:inkscape="http://www.inkscape.org/namespaces/inkscape"
   width="297mm"
   height="210mm"
   viewBox="0 0 297 210"
   version="1.1"
   id="svg1663"
   inkscape:version="1.0 (4035a4fb49, 2020-05-01)"
   sodipodi:docname="MyMap.svg">
  <defs
     id="defs1657" />
  <sodipodi:namedview
     id="base"
     pagecolor="#ffffff"
     bordercolor="#666666"
     borderopacity="1.0"
     inkscape:pageopacity="0.0"
     inkscape:pageshadow="2"
     inkscape:zoom="8"
     inkscape:cx="741.04908"
     inkscape:cy="233.71062"
     inkscape:document-units="mm"
     inkscape:current-layer="layer1"
     inkscape:document-rotation="0"
     showgrid="false"
     inkscape:window-width="1920"
     inkscape:window-height="1001"
     inkscape:window-x="-9"
     inkscape:window-y="316"
     inkscape:window-maximized="1" />
  <metadata
     id="metadata1660">
    <rdf:RDF>
      <cc:Work
         rdf:about="">
        <dc:format>image/svg+xml</dc:format>
        <dc:type
           rdf:resource="http://purl.org/dc/dcmitype/StillImage" />
        <dc:title />
      </cc:Work>
    </rdf:RDF>
  </metadata>
  <g
     inkscape:label="Warstwa 1"
     inkscape:groupmode="layer"
     id="layer1">
    <g
       id="g850">
      <g
         id="g845"
         style="stroke-width:0;stroke-miterlimit:4;stroke-dasharray:none;fill:#503211;fill-opacity:1">
        <ellipse
           ry="0.48358488"
           rx="0.54242027"
           cy="56.630367"
           cx="-197.89391"
           id="path1213"
           style="fill:#503211;fill-opacity:1;stroke:#b36a2f;stroke-width:0;stroke-miterlimit:4;stroke-dasharray:none;stroke-opacity:1"
           transform="scale(-1,1)" />
        <path
           id="path1217"
           d="m 198.40407,57.645841 c 0,0 0.0211,-0.306574 -0.25289,-0.37732 -0.27396,-0.07075 -0.4552,-0.0079 -0.4552,-0.0079 0,0 -0.23603,0.08647 -0.24025,0.255479 -0.004,0.169009 -0.0211,0.267268 -0.0211,0.267268 l -0.31189,0.341945 -0.82611,0.196521 c 0,0 -0.17702,0.117914 -0.10959,0.255476 0.0674,0.137564 0.24868,0.165077 0.24868,0.165077 l 0.88511,-0.200449 0.1138,-0.05503 0.0126,0.829317 -0.39198,0.715337 -0.19388,0.990464 c 0,0 -0.0674,0.192591 0.25711,0.29085 0.32454,0.09826 0.41305,-0.326225 0.41305,-0.326225 l 0.14752,-0.766429 0.14751,-0.27906 0.1686,0.420553 0.0717,0.0904 0.77974,0.691752 c 0,0 0.17281,0.121845 0.40884,0.01967 0.23603,-0.102194 0.0969,-0.37732 0.0969,-0.37732 l -0.77974,-0.699614 -0.23603,-0.632798 c 0,0 0.0801,-0.113983 0.0716,-0.157216 -0.008,-0.04324 0.008,-1.006188 0.008,-1.006188 l 0.0674,0.03145 0.0717,0.723195 c 0,0 0.0548,0.137565 0.25289,0.153286 0.1981,0.01572 0.25711,-0.157216 0.25711,-0.157216 l -0.0927,-0.833248 c 0,0 -0.0295,-0.10219 -0.0422,-0.110052 -0.0126,-0.0079 -0.52685,-0.451997 -0.52685,-0.451997 z"
           style="fill:#503211;fill-opacity:1;stroke:#b36a2f;stroke-width:0;stroke-linecap:butt;stroke-linejoin:miter;stroke-miterlimit:4;stroke-dasharray:none;stroke-opacity:1" />
      </g>
    </g>
  </g>
</svg>
